<svg width="163" height="48" viewBox="0 0 163 48" fill="none" xmlns="http://www.w3.org/2000/svg">
<g clip-path="url(#clip0_166_1649)">
<path d="M149.3 0.000155822H13.1081C12.6117 0.000155822 12.1212 0.000155822 11.6261 0.00255309C11.2117 0.00495035 10.8005 0.0119144 10.382 0.0177757C9.473 0.0272471 8.56608 0.0980556 7.66919 0.229586C6.77355 0.36398 5.90598 0.61735 5.0958 0.981128C4.28661 1.34798 3.54723 1.82467 2.90449 2.39391C2.25837 2.96154 1.71977 3.61765 1.30942 4.337C0.897939 5.05492 0.612615 5.82423 0.463304 6.61838C0.312575 7.41152 0.231466 8.2138 0.220705 9.01804C0.208142 9.38554 0.206815 9.75426 0.200195 10.1218V37.8273C0.206815 38.1995 0.208142 38.56 0.220705 38.9323C0.231469 39.7365 0.312578 40.5387 0.463304 41.3319C0.612202 42.1265 0.897543 42.8962 1.30942 43.6144C1.71959 44.3314 2.25825 44.9849 2.90449 45.5494C3.54479 46.1211 4.28465 46.5981 5.0958 46.9622C5.90597 47.3269 6.77345 47.5818 7.66919 47.7183C8.56624 47.8488 9.47306 47.9196 10.382 47.9302C10.8005 47.9384 11.2117 47.943 11.6261 47.943C12.1212 47.9454 12.6117 47.9454 13.1081 47.9454H149.3C149.786 47.9454 150.28 47.9454 150.767 47.943C151.18 47.943 151.603 47.9384 152.015 47.9302C152.922 47.9202 153.827 47.8493 154.723 47.7183C155.621 47.5809 156.492 47.326 157.306 46.9622C158.116 46.5979 158.856 46.1209 159.495 45.5494C160.14 44.9827 160.68 44.3297 161.095 43.6144C161.504 42.8957 161.786 42.126 161.933 41.3319C162.084 40.5386 162.168 39.7366 162.184 38.9323C162.19 38.56 162.19 38.1995 162.19 37.8273C162.2 37.3918 162.2 36.9588 162.2 36.5162V11.4305C162.2 10.9915 162.2 10.5561 162.19 10.1218C162.19 9.75426 162.19 9.38554 162.184 9.01799C162.168 8.21369 162.084 7.41158 161.933 6.61833C161.786 5.82464 161.503 5.05539 161.095 4.33695C160.259 2.89509 158.934 1.72142 157.306 0.98102C156.492 0.618131 155.621 0.364828 154.723 0.229478C153.828 0.0973682 152.922 0.026535 152.015 0.0176079C151.603 0.0117586 151.18 0.00473459 150.767 0.00239726C150.28 0 149.786 0 149.3 0V0.000155822Z" fill="#A6A6A6"/>
<path d="M11.632 46.8965C11.2195 46.8965 10.817 46.8918 10.4078 46.8837C9.56001 46.8739 8.71423 46.8085 7.87736 46.6882C7.09702 46.5692 6.34108 46.3478 5.63448 46.0314C4.93436 45.7177 4.29579 45.3062 3.74324 44.8129C3.18269 44.3254 2.716 43.76 2.36168 43.139C2.00345 42.514 1.75554 41.8441 1.62657 41.1526C1.4873 40.4096 1.41195 39.6583 1.40117 38.9052C1.39258 38.6524 1.38135 37.8107 1.38135 37.8107V10.1217C1.38135 10.1217 1.39332 9.29293 1.40123 9.04945C1.41156 8.29753 1.48647 7.54739 1.62533 6.80553C1.75453 6.11215 2.00264 5.44031 2.36106 4.81329C2.71408 4.19277 3.17817 3.62692 3.73534 3.13766C4.29189 2.64375 4.9325 2.2302 5.63382 1.91209C6.3388 1.59671 7.09331 1.37693 7.87207 1.26011C8.71168 1.13853 9.56041 1.0728 10.4111 1.06346L11.6327 1.04883H150.76L151.996 1.06405C152.839 1.07292 153.68 1.13807 154.512 1.25894C155.298 1.37722 156.061 1.59854 156.774 1.91561C158.179 2.55669 159.322 3.57094 160.043 4.81621C160.396 5.43891 160.64 6.10526 160.768 6.79266C160.908 7.54061 160.987 8.29664 161.003 9.05473C161.007 9.39418 161.007 9.7588 161.007 10.1217C161.018 10.5712 161.018 10.999 161.018 11.4303V36.5161C161.018 36.9516 161.018 37.3765 161.007 37.8049C161.007 38.1947 161.007 38.5517 161.002 38.9192C160.986 39.6638 160.909 40.4063 160.77 41.1409C160.644 41.8374 160.397 42.5125 160.039 43.1426C159.682 43.7568 159.218 44.3174 158.664 44.8036C158.111 45.2995 157.472 45.7134 156.77 46.0292C156.059 46.348 155.298 46.5701 154.512 46.6882C153.675 46.8092 152.829 46.8745 151.981 46.8837C151.585 46.8918 151.169 46.8965 150.766 46.8965L149.299 46.8989L11.632 46.8965Z" fill="black"/>
<path d="M29.9728 24.3331C29.9858 23.3326 30.2523 22.3517 30.7475 21.4815C31.2428 20.6114 31.9507 19.8803 32.8054 19.3563C32.2624 18.583 31.5461 17.9466 30.7133 17.4976C29.8806 17.0487 28.9543 16.7996 28.0081 16.77C25.9896 16.5588 24.0328 17.9745 23.0043 17.9745C21.9558 17.9745 20.3722 16.791 18.6669 16.826C17.5638 16.8615 16.4888 17.1814 15.5466 17.7544C14.6044 18.3274 13.8271 19.1341 13.2904 20.0957C10.9658 24.1092 12.6998 30.0078 14.9266 33.252C16.0407 34.8406 17.3428 36.6151 19.0466 36.5522C20.7138 36.4832 21.3365 35.492 23.349 35.492C25.3428 35.492 25.927 36.5522 27.6654 36.5122C29.4544 36.4832 30.5816 34.9165 31.6566 33.3129C32.4571 32.1809 33.0731 30.9299 33.4818 29.6061C32.4424 29.1677 31.5554 28.4339 30.9314 27.4962C30.3074 26.5586 29.9741 25.4584 29.9728 24.3331Z" fill="white"/>
<path d="M26.6899 14.6366C27.6654 13.4689 28.146 11.968 28.0296 10.4526C26.5393 10.6087 25.1627 11.319 24.1741 12.4419C23.6907 12.9905 23.3205 13.6287 23.0846 14.32C22.8487 15.0113 22.7518 15.7423 22.7994 16.471C23.5448 16.4786 24.2822 16.3175 24.9561 15.9998C25.63 15.682 26.2229 15.2159 26.6899 14.6366Z" fill="white"/>
<path d="M51.0473 32.5304H45.3577L43.9914 36.5536H41.5815L46.9706 21.6689H49.4743L54.8634 36.5536H52.4124L51.0473 32.5304ZM45.947 30.6739H50.4569L48.2337 24.1447H48.1714L45.947 30.6739Z" fill="white"/>
<path d="M66.5023 31.1281C66.5023 34.5004 64.6922 36.6671 61.9607 36.6671C61.2688 36.7032 60.5807 36.5442 59.9751 36.2085C59.3695 35.8727 58.8711 35.3736 58.5367 34.7685H58.485V40.1436H56.2512V25.7015H58.4134V27.5065H58.4545C58.8043 26.9042 59.3112 26.4077 59.9213 26.0699C60.5315 25.7321 61.2221 25.5655 61.9197 25.5879C64.6816 25.588 66.5023 27.7651 66.5023 31.1281ZM64.2063 31.1281C64.2063 28.931 63.0676 27.4866 61.3304 27.4866C59.6236 27.4866 58.4756 28.9614 58.4756 31.1281C58.4756 33.3147 59.6236 34.779 61.3304 34.779C63.0677 34.779 64.2063 33.3451 64.2063 31.1281Z" fill="white"/>
<path d="M78.4796 31.1281C78.4796 34.5004 76.6695 36.6671 73.938 36.6671C73.2461 36.7032 72.558 36.5442 71.9524 36.2085C71.3468 35.8727 70.8483 35.3736 70.514 34.7685H70.4623V40.1436H68.2285V25.7015H70.3907V27.5064H70.4318C70.7815 26.9042 71.2884 26.4077 71.8986 26.0699C72.5088 25.7321 73.1994 25.5655 73.8969 25.5879C76.659 25.5879 78.4796 27.7651 78.4796 31.1281ZM76.1836 31.1281C76.1836 28.931 75.0449 27.4865 73.3077 27.4865C71.6009 27.4865 70.4529 28.9614 70.4529 31.1281C70.4529 33.3147 71.6009 34.779 73.3077 34.779C75.045 34.779 76.1836 33.3451 76.1836 31.1281H76.1836Z" fill="white"/>
<path d="M86.3943 32.4065C86.5598 33.8825 87.9978 34.8517 89.9627 34.8517C91.8456 34.8517 93.2002 33.8825 93.2002 32.5516C93.2002 31.3962 92.3832 30.7045 90.4487 30.2304L88.5143 29.7657C85.7734 29.1055 84.5009 27.8273 84.5009 25.7531C84.5009 23.1849 86.7453 21.4209 89.9322 21.4209C93.0863 21.4209 95.2485 23.1849 95.3213 25.7531H93.0663C92.9313 24.2676 91.7 23.371 89.9005 23.371C88.101 23.371 86.8697 24.2782 86.8697 25.5986C86.8697 26.6509 87.6562 27.2701 89.58 27.7441L91.2246 28.1468C94.2871 28.869 95.5595 30.0958 95.5595 32.2729C95.5595 35.0576 93.3351 36.8017 89.7972 36.8017C86.487 36.8017 84.252 35.0986 84.1077 32.4064L86.3943 32.4065Z" fill="white"/>
<path d="M100.383 23.1333V25.7015H102.453V27.4655H100.383V33.4481C100.383 34.3775 100.798 34.8106 101.707 34.8106C101.953 34.8063 102.198 34.7891 102.442 34.7591V36.5125C102.033 36.5887 101.617 36.6232 101.201 36.6155C98.9982 36.6155 98.1389 35.7903 98.1389 33.6857V27.4655H96.5566V25.7015H98.1389V23.1333H100.383Z" fill="white"/>
<path d="M103.648 31.1284C103.648 27.714 105.665 25.5684 108.809 25.5684C111.965 25.5684 113.972 27.7139 113.972 31.1284C113.972 34.5522 111.975 36.6885 108.809 36.6885C105.645 36.6885 103.648 34.5522 103.648 31.1284ZM111.696 31.1284C111.696 28.7862 110.62 27.4038 108.809 27.4038C106.999 27.4038 105.924 28.7967 105.924 31.1284C105.924 33.48 106.999 34.8519 108.809 34.8519C110.62 34.8519 111.696 33.48 111.696 31.1284H111.696Z" fill="white"/>
<path d="M115.815 25.7019H117.945V27.549H117.997C118.141 26.9721 118.48 26.4623 118.957 26.1052C119.434 25.7482 120.019 25.5656 120.615 25.5883C120.872 25.5874 121.129 25.6153 121.38 25.6714V27.755C121.055 27.656 120.716 27.6105 120.376 27.6204C120.052 27.6072 119.728 27.6643 119.428 27.7876C119.128 27.911 118.858 28.0976 118.637 28.3348C118.416 28.572 118.248 28.8541 118.147 29.1618C118.046 29.4694 118.012 29.7953 118.049 30.1171V36.5539H115.815L115.815 25.7019Z" fill="white"/>
<path d="M131.679 33.3665C131.378 35.3365 129.454 36.6885 126.993 36.6885C123.827 36.6885 121.862 34.5733 121.862 31.1799C121.862 27.776 123.837 25.5684 126.899 25.5684C129.91 25.5684 131.803 27.6308 131.803 30.9212V31.6844H124.117V31.819C124.081 32.2184 124.131 32.6208 124.264 32.9993C124.396 33.3779 124.608 33.7241 124.885 34.0148C125.162 34.3055 125.497 34.5342 125.87 34.6856C126.242 34.8369 126.642 34.9076 127.044 34.8929C127.572 34.9422 128.102 34.8203 128.555 34.5453C129.007 34.2702 129.359 33.8568 129.557 33.3665L131.679 33.3665ZM124.127 30.1276H129.568C129.588 29.7685 129.533 29.4091 129.408 29.0721C129.282 28.735 129.087 28.4275 128.837 28.1689C128.586 27.9103 128.285 27.7061 127.951 27.5692C127.618 27.4323 127.259 27.3656 126.899 27.3733C126.535 27.3712 126.174 27.4409 125.838 27.5784C125.501 27.7159 125.195 27.9186 124.938 28.1746C124.68 28.4307 124.476 28.7351 124.337 29.0703C124.197 29.4055 124.126 29.7649 124.127 30.1276V30.1276Z" fill="white"/>
<path d="M45.6688 10.4656C46.1371 10.4321 46.607 10.5027 47.0447 10.6722C47.4823 10.8417 47.8768 11.106 48.1996 11.446C48.5225 11.7859 48.7656 12.1931 48.9116 12.6381C49.0575 13.0831 49.1025 13.5549 49.0435 14.0194C49.0435 16.3043 47.8051 17.6177 45.6688 17.6177H43.0781V10.4656H45.6688ZM44.1921 16.6062H45.5443C45.879 16.6262 46.2139 16.5715 46.5246 16.4461C46.8354 16.3207 47.1142 16.1278 47.3408 15.8814C47.5673 15.635 47.7359 15.3413 47.8343 15.0217C47.9327 14.7021 47.9584 14.3647 47.9096 14.034C47.9549 13.7045 47.9266 13.3692 47.8267 13.052C47.7268 12.7347 47.5577 12.4435 47.3317 12.199C47.1056 11.9546 46.8282 11.763 46.5192 11.6381C46.2101 11.5131 45.8773 11.4579 45.5443 11.4763H44.1921V16.6062Z" fill="white"/>
<path d="M50.3026 14.9162C50.2686 14.5615 50.3093 14.2036 50.4221 13.8655C50.5349 13.5274 50.7173 13.2166 50.9576 12.9529C51.1979 12.6892 51.4909 12.4785 51.8176 12.3344C52.1444 12.1902 52.4978 12.1157 52.8551 12.1157C53.2124 12.1157 53.5658 12.1902 53.8925 12.3344C54.2193 12.4785 54.5122 12.6892 54.7526 12.9529C54.9929 13.2166 55.1753 13.5274 55.2881 13.8655C55.4009 14.2036 55.4416 14.5615 55.4076 14.9162C55.4422 15.2712 55.402 15.6296 55.2895 15.9683C55.177 16.3069 54.9947 16.6183 54.7543 16.8825C54.514 17.1467 54.2208 17.3578 53.8937 17.5023C53.5666 17.6468 53.2128 17.7214 52.8551 17.7214C52.4973 17.7214 52.1436 17.6468 51.8165 17.5023C51.4894 17.3578 51.1962 17.1467 50.9558 16.8825C50.7154 16.6183 50.5331 16.3069 50.4206 15.9683C50.3081 15.6296 50.2679 15.2712 50.3026 14.9162ZM54.3089 14.9162C54.3089 13.7462 53.7818 13.0621 52.8568 13.0621C51.9284 13.0621 51.406 13.7462 51.406 14.9162C51.406 16.0955 51.9284 16.7744 52.8568 16.7744C53.7818 16.7744 54.3089 16.0908 54.3089 14.9162H54.3089Z" fill="white"/>
<path d="M62.1929 17.6176H61.0848L59.9662 13.6424H59.8816L58.7677 17.6176H57.6702L56.1782 12.2202H57.2617L58.2312 16.3387H58.3111L59.4239 12.2202H60.4486L61.5614 16.3387H61.6459L62.6108 12.2202H63.679L62.1929 17.6176Z" fill="white"/>
<path d="M64.9324 12.2199H65.9606V13.0773H66.0405C66.1759 12.7693 66.4043 12.5112 66.6938 12.3388C66.9833 12.1664 67.3196 12.0884 67.6557 12.1157C67.919 12.0959 68.1834 12.1355 68.4294 12.2315C68.6753 12.3275 68.8964 12.4775 69.0763 12.6703C69.2562 12.8631 69.3904 13.0938 69.4687 13.3453C69.5471 13.5968 69.5677 13.8626 69.5291 14.1231V17.6171H68.4609V14.3906C68.4609 13.5233 68.0829 13.0919 67.2929 13.0919C67.1141 13.0836 66.9356 13.1139 66.7697 13.1809C66.6038 13.2478 66.4543 13.3497 66.3315 13.4796C66.2088 13.6095 66.1156 13.7644 66.0585 13.9335C66.0014 14.1027 65.9816 14.2822 66.0005 14.4597V17.6172H64.9324L64.9324 12.2199Z" fill="white"/>
<path d="M71.2322 10.1133H72.3004V17.6176H71.2322V10.1133Z" fill="white"/>
<path d="M73.786 14.9163C73.752 14.5616 73.7927 14.2037 73.9055 13.8656C74.0183 13.5274 74.2008 13.2166 74.4411 12.9529C74.6815 12.6892 74.9744 12.4785 75.3012 12.3344C75.628 12.1902 75.9814 12.1157 76.3388 12.1157C76.6961 12.1157 77.0495 12.1902 77.3763 12.3344C77.7031 12.4785 77.996 12.6892 78.2364 12.9529C78.4767 13.2166 78.6592 13.5274 78.772 13.8656C78.8848 14.2037 78.9255 14.5616 78.8915 14.9163C78.9262 15.2714 78.8859 15.6297 78.7734 15.9684C78.6609 16.307 78.4785 16.6184 78.2381 16.8826C77.9977 17.1468 77.7045 17.3579 77.3774 17.5024C77.0503 17.6469 76.6965 17.7215 76.3388 17.7215C75.981 17.7215 75.6272 17.6469 75.3001 17.5024C74.973 17.3579 74.6798 17.1468 74.4394 16.8826C74.199 16.6184 74.0167 16.307 73.9041 15.9684C73.7916 15.6297 73.7513 15.2714 73.786 14.9163ZM77.7922 14.9163C77.7922 13.7463 77.2652 13.0622 76.3402 13.0622C75.4117 13.0622 74.8894 13.7463 74.8894 14.9163C74.8894 16.0956 75.4118 16.7745 76.3402 16.7745C77.2652 16.7745 77.7922 16.0909 77.7922 14.9163H77.7922Z" fill="white"/>
<path d="M80.0156 16.0909C80.0156 15.1193 80.741 14.5592 82.0287 14.4796L83.4948 14.3953V13.9295C83.4948 13.3594 83.1169 13.0375 82.3867 13.0375C81.7905 13.0375 81.3773 13.2558 81.2587 13.6374H80.2246C80.3337 12.7104 81.2082 12.1157 82.436 12.1157C83.793 12.1157 84.5583 12.7894 84.5583 13.9295V17.6172H83.5301V16.8587H83.4455C83.274 17.1308 83.0331 17.3526 82.7475 17.5015C82.4619 17.6504 82.1417 17.721 81.8198 17.7062C81.5926 17.7297 81.3629 17.7056 81.1457 17.6352C80.9284 17.5649 80.7283 17.4499 80.5583 17.2977C80.3883 17.1455 80.2522 16.9595 80.1587 16.7516C80.0653 16.5438 80.0165 16.3187 80.0156 16.0909ZM83.4948 15.6297V15.1784L82.1731 15.2627C81.4277 15.3124 81.0897 15.5653 81.0897 16.0411C81.0897 16.5269 81.5122 16.8096 82.0933 16.8096C82.2636 16.8268 82.4356 16.8096 82.599 16.7592C82.7625 16.7087 82.9142 16.626 83.0449 16.5159C83.1757 16.4058 83.2829 16.2706 83.3602 16.1184C83.4375 15.9661 83.4833 15.7999 83.4948 15.6297Z" fill="white"/>
<path d="M85.9624 14.9166C85.9624 13.2111 86.8416 12.1307 88.2091 12.1307C88.5474 12.1152 88.8831 12.196 89.177 12.3637C89.4709 12.5313 89.7109 12.779 89.8689 13.0776H89.9487V10.1133H91.0169V17.6176H89.9933V16.7649H89.9088C89.7386 17.0615 89.4902 17.3061 89.1906 17.4721C88.891 17.6381 88.5516 17.7191 88.2091 17.7066C86.8322 17.7066 85.9624 16.6262 85.9624 14.9166ZM87.0658 14.9166C87.0658 16.0614 87.607 16.7503 88.512 16.7503C89.4123 16.7503 89.9687 16.0515 89.9687 14.9213C89.9687 13.7964 89.4064 13.0876 88.512 13.0876C87.6128 13.0876 87.0658 13.7812 87.0658 14.9166H87.0658Z" fill="white"/>
<path d="M95.4361 14.9162C95.4021 14.5615 95.4428 14.2036 95.5556 13.8655C95.6684 13.5274 95.8508 13.2166 96.0911 12.9529C96.3315 12.6892 96.6244 12.4785 96.9512 12.3344C97.2779 12.1902 97.6313 12.1157 97.9886 12.1157C98.3459 12.1157 98.6993 12.1902 99.0261 12.3344C99.3528 12.4785 99.6458 12.6892 99.8861 12.9529C100.126 13.2166 100.309 13.5274 100.422 13.8655C100.534 14.2036 100.575 14.5615 100.541 14.9162C100.576 15.2712 100.536 15.6296 100.423 15.9683C100.311 16.3069 100.128 16.6183 99.8879 16.8825C99.6475 17.1467 99.3543 17.3578 99.0272 17.5023C98.7002 17.6468 98.3464 17.7214 97.9886 17.7214C97.6309 17.7214 97.2771 17.6468 96.95 17.5023C96.6229 17.3578 96.3298 17.1467 96.0894 16.8825C95.849 16.6183 95.6667 16.3069 95.5542 15.9683C95.4417 15.6296 95.4015 15.2712 95.4361 14.9162ZM99.4424 14.9162C99.4424 13.7462 98.9154 13.0621 97.9904 13.0621C97.0619 13.0621 96.5396 13.7462 96.5396 14.9162C96.5396 16.0955 97.0619 16.7744 97.9904 16.7744C98.9154 16.7744 99.4424 16.0908 99.4424 14.9162Z" fill="white"/>
<path d="M101.974 12.2199H103.002V13.0773H103.082C103.217 12.7693 103.446 12.5112 103.735 12.3388C104.025 12.1664 104.361 12.0884 104.697 12.1157C104.961 12.0959 105.225 12.1355 105.471 12.2315C105.717 12.3275 105.938 12.4775 106.118 12.6703C106.298 12.8631 106.432 13.0938 106.51 13.3453C106.589 13.5968 106.609 13.8626 106.571 14.1231V17.6171H105.502V14.3906C105.502 13.5233 105.124 13.0919 104.334 13.0919C104.156 13.0836 103.977 13.1139 103.811 13.1809C103.645 13.2478 103.496 13.3497 103.373 13.4796C103.25 13.6095 103.157 13.7644 103.1 13.9335C103.043 14.1027 103.023 14.2822 103.042 14.4597V17.6172H101.974V12.2199Z" fill="white"/>
<path d="M112.606 10.8765V12.2448H113.778V13.142H112.606V15.9174C112.606 16.4828 112.839 16.7303 113.371 16.7303C113.507 16.7299 113.643 16.7217 113.778 16.7057V17.593C113.586 17.6272 113.392 17.6454 113.197 17.6474C112.009 17.6474 111.536 17.2307 111.536 16.1901V13.142H110.677V12.2448H111.536V10.8765H112.606Z" fill="white"/>
<path d="M115.239 10.1133H116.297V13.0876H116.382C116.524 12.7768 116.758 12.5172 117.054 12.3442C117.349 12.1711 117.691 12.0931 118.032 12.1208C118.294 12.1065 118.556 12.1502 118.799 12.2485C119.042 12.3468 119.261 12.4975 119.439 12.6897C119.617 12.8818 119.75 13.1108 119.829 13.3603C119.908 13.6098 119.931 13.8736 119.896 14.1329V17.6176H118.827V14.3957C118.827 13.5336 118.424 13.097 117.67 13.097C117.486 13.082 117.301 13.1071 117.128 13.1707C116.956 13.2343 116.799 13.3348 116.669 13.4651C116.539 13.5955 116.44 13.7525 116.377 13.9253C116.314 14.098 116.29 14.2824 116.307 14.4653V17.6176H115.239L115.239 10.1133Z" fill="white"/>
<path d="M126.123 16.16C125.978 16.6533 125.663 17.08 125.234 17.3655C124.806 17.6509 124.29 17.7769 123.777 17.7215C123.421 17.7309 123.067 17.6628 122.739 17.5219C122.411 17.381 122.119 17.1708 121.881 16.9057C121.643 16.6407 121.466 16.3271 121.361 15.9869C121.257 15.6468 121.228 15.288 121.277 14.9356C121.23 14.5822 121.259 14.2227 121.363 13.8815C121.467 13.5402 121.643 13.2253 121.88 12.9579C122.116 12.6905 122.408 12.477 122.734 12.3317C123.061 12.1864 123.415 12.1128 123.773 12.1158C125.279 12.1158 126.187 13.1418 126.187 14.8367V15.2084H122.365V15.2681C122.349 15.4662 122.374 15.6655 122.439 15.8534C122.504 16.0413 122.607 16.2135 122.743 16.3591C122.879 16.5047 123.044 16.6204 123.227 16.6988C123.41 16.7772 123.607 16.8165 123.807 16.8143C124.062 16.8449 124.321 16.799 124.55 16.6825C124.78 16.566 124.969 16.3841 125.095 16.16L126.123 16.16ZM122.365 14.4206H125.099C125.113 14.2395 125.088 14.0575 125.027 13.8864C124.965 13.7154 124.869 13.559 124.744 13.4273C124.618 13.2956 124.466 13.1916 124.298 13.1218C124.13 13.0521 123.949 13.0182 123.767 13.0224C123.582 13.0201 123.399 13.0547 123.228 13.1241C123.057 13.1936 122.901 13.2965 122.77 13.4268C122.64 13.5571 122.537 13.7122 122.467 13.8829C122.398 14.0535 122.363 14.2364 122.365 14.4206H122.365Z" fill="white"/>
</g>
<defs>
<clipPath id="clip0_166_1649">
<rect width="162" height="48" fill="white" transform="translate(0.200195)"/>
</clipPath>
</defs>
</svg>
