<svg width="162" height="48" viewBox="0 0 162 48" fill="none" xmlns="http://www.w3.org/2000/svg">
<linearGradient id="paint0_linear_166_1678" x1="26.1595" y1="10.4518" x2="6.02064" y2="30.5906" gradientUnits="userSpaceOnUse">
<stop stop-color="#00A0FF"/>
<stop offset="0.00657445" stop-color="#00A1FF"/>
<stop offset="0.2601" stop-color="#00BEFF"/>
<stop offset="0.5122" stop-color="#00D2FF"/>
<stop offset="0.7604" stop-color="#00DFFF"/>
<stop offset="1" stop-color="#00E3FF"/>
</linearGradient>
<linearGradient id="paint1_linear_166_1678" x1="40.6002" y1="24.0027" x2="11.5639" y2="24.0027" gradientUnits="userSpaceOnUse">
<stop stop-color="#FFE000"/>
<stop offset="0.4087" stop-color="#FFBD00"/>
<stop offset="0.7754" stop-color="#FFA500"/>
<stop offset="1" stop-color="#FF9C00"/>
</linearGradient>
<linearGradient id="paint2_linear_166_1678" x1="29.7913" y1="26.7559" x2="2.48133" y2="54.0659" gradientUnits="userSpaceOnUse">
<stop stop-color="#FF3A44"/>
<stop offset="1" stop-color="#C31162"/>
</linearGradient>
<linearGradient id="paint3_linear_166_1678" x1="8.75564" y1="0.211497" x2="20.9508" y2="12.4065" gradientUnits="userSpaceOnUse">
<stop stop-color="#32A071"/>
<stop offset="0.0685" stop-color="#2DA771"/>
<stop offset="0.4762" stop-color="#15CF74"/>
<stop offset="0.8009" stop-color="#06E775"/>
<stop offset="1" stop-color="#00F076"/>
</linearGradient>
<path d="M156 48H6C2.64 48 0 45.36 0 42V6C0 2.64 2.64 0 6 0H156C159.36 0 162 2.64 162 6V42C162 45.36 159.36 48 156 48Z" fill="black"/>
<path d="M156 0.96C158.76 0.96 161.04 3.24 161.04 6V42C161.04 44.76 158.76 47.04 156 47.04H6C3.24 47.04 0.96 44.76 0.96 42V6C0.96 3.24 3.24 0.96 6 0.96H156V0.96ZM156 0H6C2.64 0 0 2.76 0 6V42C0 45.36 2.64 48 6 48H156C159.36 48 162 45.36 162 42V6C162 2.76 159.36 0 156 0Z" fill="#A6A6A6"/>
<path d="M56.8792 12.2403C56.8792 13.2003 56.6392 14.0403 56.0392 14.6403C55.3192 15.3603 54.4792 15.7203 53.3992 15.7203C52.3192 15.7203 51.4792 15.3603 50.7592 14.6403C50.0392 13.9203 49.6792 13.0803 49.6792 12.0003C49.6792 10.9203 50.0392 10.0803 50.7592 9.36027C51.4792 8.64027 52.3192 8.28027 53.3992 8.28027C53.8792 8.28027 54.3592 8.40027 54.8392 8.64027C55.3192 8.88027 55.6792 9.12027 55.9192 9.48027L55.3192 10.0803C54.8392 9.48027 54.2392 9.24027 53.3992 9.24027C52.6792 9.24027 51.9592 9.48027 51.4792 10.0803C50.8792 10.5603 50.6392 11.2803 50.6392 12.1203C50.6392 12.9603 50.8792 13.6803 51.4792 14.1603C52.0792 14.6403 52.6792 15.0003 53.3992 15.0003C54.2392 15.0003 54.8392 14.7603 55.4392 14.1603C55.7992 13.8003 56.0392 13.3203 56.0392 12.7203H53.3992V11.7603H56.8792C56.8792 11.8803 56.8792 12.1203 56.8792 12.2403Z" fill="white" stroke="white" stroke-width="0.24" stroke-miterlimit="10"/>
<path d="M62.4002 9.24088H59.1602V11.5209H62.1602V12.3609H59.1602V14.6409H62.4002V15.6009H58.2002V8.40088H62.4002V9.24088Z" fill="white" stroke="white" stroke-width="0.24" stroke-miterlimit="10"/>
<path d="M66.3594 15.6009H65.3994V9.24088H63.3594V8.40088H68.3994V9.24088H66.3594V15.6009Z" fill="white" stroke="white" stroke-width="0.24" stroke-miterlimit="10"/>
<path d="M71.8801 15.6009V8.40088H72.8401V15.6009H71.8801Z" fill="white" stroke="white" stroke-width="0.24" stroke-miterlimit="10"/>
<path d="M76.9197 15.6009H75.9597V9.24088H73.9197V8.40088H78.8397V9.24088H76.7997V15.6009H76.9197Z" fill="white" stroke="white" stroke-width="0.24" stroke-miterlimit="10"/>
<path d="M88.3195 14.6403C87.5995 15.3603 86.7595 15.7203 85.6795 15.7203C84.5995 15.7203 83.7595 15.3603 83.0395 14.6403C82.3195 13.9203 81.9595 13.0803 81.9595 12.0003C81.9595 10.9203 82.3195 10.0803 83.0395 9.36027C83.7595 8.64027 84.5995 8.28027 85.6795 8.28027C86.7595 8.28027 87.5995 8.64027 88.3195 9.36027C89.0395 10.0803 89.3995 10.9203 89.3995 12.0003C89.3995 13.0803 89.0395 13.9203 88.3195 14.6403ZM83.7595 14.0403C84.2395 14.5203 84.9595 14.8803 85.6795 14.8803C86.3995 14.8803 87.1195 14.6403 87.5995 14.0403C88.0795 13.5603 88.4395 12.8403 88.4395 12.0003C88.4395 11.1603 88.1995 10.4403 87.5995 9.96027C87.1195 9.48027 86.3995 9.12027 85.6795 9.12027C84.9595 9.12027 84.2395 9.36027 83.7595 9.96027C83.2795 10.4403 82.9195 11.1603 82.9195 12.0003C82.9195 12.8403 83.1595 13.5603 83.7595 14.0403Z" fill="white" stroke="white" stroke-width="0.24" stroke-miterlimit="10"/>
<path d="M90.7197 15.6009V8.40088H91.7997L95.2797 14.0409V12.6009V8.40088H96.2397V15.6009H95.2797L91.5597 9.72088V11.1609V15.6009H90.7197Z" fill="white" stroke="white" stroke-width="0.24" stroke-miterlimit="10"/>
<path d="M81.7208 26.16C78.8408 26.16 76.5608 28.32 76.5608 31.32C76.5608 34.2 78.8408 36.48 81.7208 36.48C84.6008 36.48 86.8808 34.32 86.8808 31.32C86.8808 28.2 84.6008 26.16 81.7208 26.16ZM81.7208 34.32C80.1608 34.32 78.8408 33 78.8408 31.2C78.8408 29.4 80.1608 28.08 81.7208 28.08C83.2808 28.08 84.6008 29.28 84.6008 31.2C84.6008 33 83.2808 34.32 81.7208 34.32ZM70.5608 26.16C67.6808 26.16 65.4008 28.32 65.4008 31.32C65.4008 34.2 67.6808 36.48 70.5608 36.48C73.4408 36.48 75.7208 34.32 75.7208 31.32C75.7208 28.2 73.4408 26.16 70.5608 26.16ZM70.5608 34.32C69.0008 34.32 67.6808 33 67.6808 31.2C67.6808 29.4 69.0008 28.08 70.5608 28.08C72.1208 28.08 73.4408 29.28 73.4408 31.2C73.4408 33 72.1208 34.32 70.5608 34.32ZM57.2408 27.72V29.88H62.4008C62.2808 31.08 61.8008 32.04 61.2008 32.64C60.4808 33.36 59.2808 34.2 57.2408 34.2C54.0008 34.2 51.6008 31.68 51.6008 28.44C51.6008 25.2 54.1208 22.68 57.2408 22.68C58.9208 22.68 60.2408 23.4 61.2008 24.24L62.7608 22.68C61.4408 21.48 59.7608 20.52 57.3608 20.52C53.0408 20.52 49.3208 24.12 49.3208 28.44C49.3208 32.76 53.0408 36.36 57.3608 36.36C59.7608 36.36 61.4408 35.64 62.8808 34.08C64.3208 32.64 64.8008 30.6 64.8008 29.04C64.8008 28.56 64.8008 28.08 64.6808 27.72H57.2408ZM111.721 29.4C111.241 28.2 110.041 26.16 107.401 26.16C104.761 26.16 102.601 28.2 102.601 31.32C102.601 34.2 104.761 36.48 107.641 36.48C109.921 36.48 111.361 35.04 111.841 34.2L110.161 33C109.561 33.84 108.841 34.44 107.641 34.44C106.441 34.44 105.721 33.96 105.121 32.88L111.961 30L111.721 29.4ZM104.761 31.08C104.761 29.16 106.321 28.08 107.401 28.08C108.241 28.08 109.081 28.56 109.321 29.16L104.761 31.08ZM99.1208 36H101.401V21H99.1208V36ZM95.5208 27.24C94.9208 26.64 93.9608 26.04 92.7608 26.04C90.2408 26.04 87.8408 28.32 87.8408 31.2C87.8408 34.08 90.1208 36.24 92.7608 36.24C93.9608 36.24 94.9208 35.64 95.4008 35.04H95.5208V35.76C95.5208 37.68 94.4408 38.76 92.7608 38.76C91.4408 38.76 90.4808 37.8 90.2408 36.96L88.3208 37.8C88.9208 39.12 90.3608 40.8 92.8808 40.8C95.5208 40.8 97.6808 39.24 97.6808 35.52V26.4H95.5208V27.24ZM92.8808 34.32C91.3208 34.32 90.0008 33 90.0008 31.2C90.0008 29.4 91.3208 28.08 92.8808 28.08C94.4408 28.08 95.6408 29.4 95.6408 31.2C95.6408 33 94.4408 34.32 92.8808 34.32ZM122.161 21H116.761V36H119.041V30.36H122.161C124.681 30.36 127.081 28.56 127.081 25.68C127.081 22.8 124.681 21 122.161 21ZM122.281 28.2H119.041V23.04H122.281C123.961 23.04 124.921 24.48 124.921 25.56C124.801 26.88 123.841 28.2 122.281 28.2ZM136.081 26.04C134.401 26.04 132.721 26.76 132.121 28.32L134.161 29.16C134.641 28.32 135.361 28.08 136.201 28.08C137.401 28.08 138.481 28.8 138.601 30V30.12C138.241 29.88 137.281 29.52 136.321 29.52C134.161 29.52 132.001 30.72 132.001 32.88C132.001 34.92 133.801 36.24 135.721 36.24C137.281 36.24 138.001 35.52 138.601 34.8H138.721V36H140.881V30.24C140.641 27.6 138.601 26.04 136.081 26.04ZM135.841 34.32C135.121 34.32 134.041 33.96 134.041 33C134.041 31.8 135.361 31.44 136.441 31.44C137.401 31.44 137.881 31.68 138.481 31.92C138.241 33.36 137.041 34.32 135.841 34.32ZM148.441 26.4L145.921 32.88H145.801L143.161 26.4H140.761L144.721 35.52L142.441 40.56H144.721L150.841 26.4H148.441ZM128.281 36H130.561V21H128.281V36Z" fill="white"/>
<path d="M12.48 9C12.12 9.36 12 9.96 12 10.68V37.2C12 37.92 12.24 38.52 12.6 38.88L12.72 39L27.6 24.12V24V23.88L12.48 9Z" fill="url(#paint0_linear_166_1678)"/>
<path d="M32.399 29.1609L27.479 24.2409V24.0009V23.8809L32.399 18.9609L32.519 19.0809L38.399 22.4409C40.079 23.4009 40.079 24.9609 38.399 25.9209L32.399 29.1609Z" fill="url(#paint1_linear_166_1678)"/>
<path d="M32.519 29.0405L27.479 24.0005L12.479 39.0005C13.079 39.6005 13.919 39.6005 14.999 39.1205L32.519 29.0405Z" fill="url(#paint2_linear_166_1678)"/>
<path d="M32.519 18.9599L14.999 8.99994C13.919 8.39994 13.079 8.51994 12.479 9.11994L27.479 23.9999L32.519 18.9599Z" fill="url(#paint3_linear_166_1678)"/>
<path opacity="0.2" d="M32.399 28.9194L14.999 38.7594C14.039 39.3594 13.199 39.2394 12.599 38.7594L12.479 38.8794L12.599 38.9994C13.199 39.4794 14.039 39.5994 14.999 38.9994L32.399 28.9194Z" fill="black"/>
<path opacity="0.12" d="M12.48 38.762C12.12 38.402 12 37.802 12 37.082V37.202C12 37.922 12.24 38.522 12.6 38.882V38.762H12.48Z" fill="black"/>
<path opacity="0.12" d="M38.3999 25.5605L32.3999 28.9205L32.5199 29.0405L38.3999 25.6805C39.2399 25.2005 39.5999 24.6005 39.5999 24.0005C39.5999 24.6005 39.1199 25.0805 38.3999 25.5605Z" fill="black"/>
<path opacity="0.25" d="M15 9.12101L38.4 22.441C39.12 22.921 39.6 23.401 39.6 24.001C39.6 23.401 39.24 22.801 38.4 22.321L15 9.00101C13.32 8.04101 12 8.76101 12 10.681V10.801C12 9.00101 13.32 8.16101 15 9.12101Z" fill="white"/>
<defs>
</defs>
</svg>
