<svg width="169" height="42" viewBox="0 0 169 42" fill="none" xmlns="http://www.w3.org/2000/svg">
<rect width="169" height="42" rx="21" fill="#5C1E9A"/>
<path d="M40.3483 26.112C40.135 26.112 39.9696 26.0533 39.8523 25.936C39.7456 25.808 39.6923 25.6373 39.6923 25.424V15.296C39.6923 15.072 39.7456 14.9013 39.8523 14.784C39.9696 14.6667 40.135 14.608 40.3483 14.608C40.5616 14.608 40.7216 14.6667 40.8283 14.784C40.9456 14.9013 41.0043 15.072 41.0043 15.296V25.424C41.0043 25.6373 40.951 25.808 40.8443 25.936C40.7376 26.0533 40.5723 26.112 40.3483 26.112ZM44.3457 26.112C44.1324 26.112 43.9724 26.0533 43.8657 25.936C43.759 25.8187 43.7057 25.6533 43.7057 25.44V18.768C43.7057 18.5547 43.759 18.3947 43.8657 18.288C43.9724 18.1707 44.127 18.112 44.3297 18.112C44.5324 18.112 44.687 18.1707 44.7937 18.288C44.911 18.3947 44.9697 18.5547 44.9697 18.768V20.144L44.7937 19.952C45.0177 19.3333 45.3804 18.8693 45.8817 18.56C46.3937 18.24 46.9804 18.08 47.6417 18.08C48.2604 18.08 48.7724 18.192 49.1777 18.416C49.5937 18.64 49.903 18.9813 50.1057 19.44C50.3084 19.888 50.4097 20.4587 50.4097 21.152V25.44C50.4097 25.6533 50.351 25.8187 50.2337 25.936C50.127 26.0533 49.9724 26.112 49.7697 26.112C49.5564 26.112 49.391 26.0533 49.2737 25.936C49.167 25.8187 49.1137 25.6533 49.1137 25.44V21.232C49.1137 20.5067 48.9697 19.9787 48.6817 19.648C48.4044 19.3067 47.9564 19.136 47.3377 19.136C46.623 19.136 46.0524 19.36 45.6257 19.808C45.2097 20.2453 45.0017 20.832 45.0017 21.568V25.44C45.0017 25.888 44.783 26.112 44.3457 26.112ZM55.5034 26.144C55.0234 26.144 54.5381 26.0853 54.0474 25.968C53.5674 25.8507 53.1194 25.648 52.7034 25.36C52.5968 25.2853 52.5221 25.2 52.4794 25.104C52.4368 24.9973 52.4208 24.896 52.4314 24.8C52.4528 24.6933 52.4954 24.6027 52.5594 24.528C52.6341 24.4533 52.7194 24.4107 52.8154 24.4C52.9221 24.3787 53.0394 24.4 53.1674 24.464C53.5834 24.72 53.9834 24.9013 54.3674 25.008C54.7621 25.104 55.1514 25.152 55.5354 25.152C56.1434 25.152 56.6021 25.04 56.9114 24.816C57.2208 24.592 57.3754 24.288 57.3754 23.904C57.3754 23.6053 57.2741 23.3707 57.0714 23.2C56.8688 23.0187 56.5488 22.88 56.1114 22.784L54.6554 22.464C53.9834 22.3253 53.4821 22.0853 53.1514 21.744C52.8314 21.4027 52.6714 20.96 52.6714 20.416C52.6714 19.936 52.7941 19.5253 53.0394 19.184C53.2954 18.832 53.6528 18.56 54.1114 18.368C54.5701 18.176 55.1034 18.08 55.7114 18.08C56.1808 18.08 56.6234 18.144 57.0394 18.272C57.4661 18.3893 57.8501 18.5813 58.1914 18.848C58.2981 18.9227 58.3674 19.0133 58.3994 19.12C58.4421 19.216 58.4474 19.3173 58.4154 19.424C58.3941 19.52 58.3461 19.6053 58.2714 19.68C58.1968 19.744 58.1061 19.7813 57.9994 19.792C57.8928 19.8027 57.7808 19.7707 57.6634 19.696C57.3434 19.4827 57.0181 19.328 56.6874 19.232C56.3568 19.1253 56.0314 19.072 55.7114 19.072C55.1141 19.072 54.6608 19.1893 54.3514 19.424C54.0421 19.6587 53.8874 19.968 53.8874 20.352C53.8874 20.6507 53.9834 20.896 54.1754 21.088C54.3674 21.28 54.6661 21.4187 55.0714 21.504L56.5274 21.808C57.2208 21.9573 57.7381 22.1973 58.0794 22.528C58.4314 22.848 58.6074 23.2853 58.6074 23.84C58.6074 24.544 58.3248 25.104 57.7594 25.52C57.1941 25.936 56.4421 26.144 55.5034 26.144ZM63.7044 26.144C63.0964 26.144 62.5844 26.0373 62.1684 25.824C61.7631 25.6 61.4591 25.28 61.2564 24.864C61.0538 24.4373 60.9524 23.92 60.9524 23.312V19.232H59.8804C59.6991 19.232 59.5604 19.1893 59.4644 19.104C59.3684 19.008 59.3204 18.88 59.3204 18.72C59.3204 18.56 59.3684 18.4373 59.4644 18.352C59.5604 18.2667 59.6991 18.224 59.8804 18.224H60.9524V16.384C60.9524 16.1707 61.0111 16.0107 61.1284 15.904C61.2458 15.7867 61.4058 15.728 61.6084 15.728C61.8111 15.728 61.9658 15.7867 62.0724 15.904C62.1898 16.0107 62.2484 16.1707 62.2484 16.384V18.224H64.2644C64.4458 18.224 64.5844 18.2667 64.6804 18.352C64.7764 18.4373 64.8244 18.56 64.8244 18.72C64.8244 18.88 64.7764 19.008 64.6804 19.104C64.5844 19.1893 64.4458 19.232 64.2644 19.232H62.2484V23.184C62.2484 23.792 62.3764 24.256 62.6324 24.576C62.8884 24.8853 63.3044 25.04 63.8804 25.04C64.0831 25.04 64.2538 25.0187 64.3924 24.976C64.5418 24.9333 64.6644 24.912 64.7604 24.912C64.8564 24.9013 64.9364 24.9333 65.0004 25.008C65.0644 25.0827 65.0964 25.2107 65.0964 25.392C65.0964 25.52 65.0698 25.6373 65.0164 25.744C64.9738 25.8507 64.8938 25.9253 64.7764 25.968C64.6484 26.0107 64.4778 26.048 64.2644 26.08C64.0618 26.1227 63.8751 26.144 63.7044 26.144ZM68.7062 26.144C68.1729 26.144 67.6929 26.0427 67.2662 25.84C66.8502 25.6267 66.5195 25.3387 66.2742 24.976C66.0289 24.6133 65.9062 24.208 65.9062 23.76C65.9062 23.184 66.0502 22.7307 66.3382 22.4C66.6369 22.0693 67.1222 21.8347 67.7942 21.696C68.4769 21.5573 69.4049 21.488 70.5782 21.488H71.2982V22.336H70.5942C69.7302 22.336 69.0475 22.3787 68.5462 22.464C68.0555 22.5387 67.7089 22.672 67.5062 22.864C67.3142 23.056 67.2182 23.328 67.2182 23.68C67.2182 24.1173 67.3675 24.4747 67.6662 24.752C67.9755 25.0293 68.3915 25.168 68.9142 25.168C69.3409 25.168 69.7142 25.0667 70.0342 24.864C70.3649 24.6613 70.6209 24.384 70.8022 24.032C70.9942 23.68 71.0902 23.2747 71.0902 22.816V20.992C71.0902 20.3307 70.9569 19.856 70.6902 19.568C70.4235 19.2693 69.9862 19.12 69.3782 19.12C69.0049 19.12 68.6315 19.168 68.2582 19.264C67.8849 19.36 67.4902 19.5147 67.0742 19.728C66.9249 19.8027 66.7969 19.8293 66.6902 19.808C66.5835 19.776 66.4982 19.7173 66.4342 19.632C66.3702 19.5467 66.3329 19.4507 66.3222 19.344C66.3115 19.2267 66.3329 19.1147 66.3862 19.008C66.4502 18.9013 66.5462 18.816 66.6742 18.752C67.1435 18.5173 67.6075 18.3467 68.0662 18.24C68.5249 18.1333 68.9622 18.08 69.3782 18.08C70.0502 18.08 70.6049 18.192 71.0422 18.416C71.4795 18.6293 71.8049 18.96 72.0182 19.408C72.2315 19.8453 72.3382 20.4107 72.3382 21.104V25.44C72.3382 25.6533 72.2849 25.8187 72.1782 25.936C72.0822 26.0533 71.9382 26.112 71.7462 26.112C71.5435 26.112 71.3889 26.0533 71.2822 25.936C71.1755 25.8187 71.1222 25.6533 71.1222 25.44V24.192H71.2662C71.1809 24.5973 71.0155 24.944 70.7702 25.232C70.5355 25.52 70.2422 25.744 69.8902 25.904C69.5382 26.064 69.1435 26.144 68.7062 26.144ZM77.1906 26.144C76.4226 26.144 75.8359 25.9093 75.4306 25.44C75.0252 24.9707 74.8226 24.2987 74.8226 23.424V15.264C74.8226 15.0507 74.8759 14.8907 74.9826 14.784C75.0892 14.6667 75.2492 14.608 75.4626 14.608C75.6652 14.608 75.8252 14.6667 75.9426 14.784C76.0599 14.8907 76.1186 15.0507 76.1186 15.264V23.328C76.1186 23.904 76.2306 24.336 76.4546 24.624C76.6892 24.9013 77.0306 25.04 77.4786 25.04C77.5746 25.04 77.6599 25.0347 77.7346 25.024C77.8092 25.0133 77.8839 25.008 77.9586 25.008C78.0759 24.9973 78.1559 25.024 78.1986 25.088C78.2519 25.152 78.2786 25.28 78.2786 25.472C78.2786 25.664 78.2359 25.808 78.1506 25.904C78.0652 26 77.9266 26.064 77.7346 26.096C77.6492 26.1067 77.5586 26.1173 77.4626 26.128C77.3666 26.1387 77.2759 26.144 77.1906 26.144ZM82.0049 26.144C81.2369 26.144 80.6503 25.9093 80.2449 25.44C79.8396 24.9707 79.6369 24.2987 79.6369 23.424V15.264C79.6369 15.0507 79.6903 14.8907 79.7969 14.784C79.9036 14.6667 80.0636 14.608 80.2769 14.608C80.4796 14.608 80.6396 14.6667 80.7569 14.784C80.8743 14.8907 80.9329 15.0507 80.9329 15.264V23.328C80.9329 23.904 81.0449 24.336 81.2689 24.624C81.5036 24.9013 81.8449 25.04 82.2929 25.04C82.3889 25.04 82.4743 25.0347 82.5489 25.024C82.6236 25.0133 82.6983 25.008 82.7729 25.008C82.8903 24.9973 82.9703 25.024 83.0129 25.088C83.0663 25.152 83.0929 25.28 83.0929 25.472C83.0929 25.664 83.0503 25.808 82.9649 25.904C82.8796 26 82.7409 26.064 82.5489 26.096C82.4636 26.1067 82.3729 26.1173 82.2769 26.128C82.1809 26.1387 82.0903 26.144 82.0049 26.144ZM93.9843 26.144C92.779 26.144 91.7603 25.9147 90.9283 25.456C90.107 24.9973 89.483 24.336 89.0563 23.472C88.6296 22.608 88.4163 21.5733 88.4163 20.368C88.4163 19.472 88.5336 18.6667 88.7683 17.952C89.0136 17.2373 89.3656 16.6347 89.8243 16.144C90.2936 15.6427 90.859 15.2587 91.5203 14.992C92.1923 14.7147 92.9496 14.576 93.7923 14.576C94.4643 14.576 95.115 14.672 95.7443 14.864C96.3736 15.0453 96.9336 15.3387 97.4243 15.744C97.5523 15.84 97.6323 15.9467 97.6643 16.064C97.6963 16.1813 97.691 16.2987 97.6483 16.416C97.6163 16.5333 97.5576 16.6347 97.4723 16.72C97.3976 16.7947 97.2963 16.8373 97.1683 16.848C97.051 16.8587 96.9283 16.8213 96.8003 16.736C96.363 16.3947 95.899 16.1493 95.4083 16C94.9176 15.84 94.3736 15.76 93.7763 15.76C92.923 15.76 92.1976 15.9413 91.6003 16.304C91.0136 16.6667 90.5656 17.1893 90.2563 17.872C89.9576 18.5547 89.8083 19.3867 89.8083 20.368C89.8083 21.8613 90.155 23.0027 90.8483 23.792C91.5523 24.5813 92.6083 24.976 94.0163 24.976C94.5283 24.976 95.0296 24.928 95.5203 24.832C96.011 24.7253 96.475 24.5813 96.9123 24.4L96.6243 25.152V21.168H94.3363C94.1443 21.168 94.0003 21.12 93.9043 21.024C93.8083 20.928 93.7603 20.8 93.7603 20.64C93.7603 20.4693 93.8083 20.3413 93.9043 20.256C94.0003 20.1707 94.1443 20.128 94.3363 20.128H97.2003C97.3816 20.128 97.5203 20.176 97.6163 20.272C97.7123 20.368 97.7603 20.5067 97.7603 20.688V24.864C97.7603 25.024 97.7336 25.1573 97.6803 25.264C97.627 25.3707 97.5363 25.4507 97.4083 25.504C96.9603 25.6853 96.4216 25.84 95.7923 25.968C95.1736 26.0853 94.571 26.144 93.9843 26.144ZM101.002 26.112C100.788 26.112 100.623 26.0533 100.506 25.936C100.399 25.8187 100.346 25.6533 100.346 25.44V18.768C100.346 18.5547 100.399 18.3947 100.506 18.288C100.612 18.1707 100.767 18.112 100.97 18.112C101.172 18.112 101.327 18.1707 101.434 18.288C101.551 18.3947 101.61 18.5547 101.61 18.768V20.064H101.45C101.62 19.4347 101.946 18.9493 102.426 18.608C102.906 18.2667 103.498 18.0853 104.202 18.064C104.362 18.0533 104.49 18.0907 104.586 18.176C104.682 18.2507 104.735 18.384 104.746 18.576C104.756 18.7573 104.714 18.9013 104.618 19.008C104.522 19.1147 104.372 19.1787 104.17 19.2L103.914 19.232C103.188 19.296 102.628 19.5307 102.234 19.936C101.85 20.3307 101.658 20.8747 101.658 21.568V25.44C101.658 25.6533 101.599 25.8187 101.482 25.936C101.375 26.0533 101.215 26.112 101.002 26.112ZM108.53 26.144C107.997 26.144 107.517 26.0427 107.09 25.84C106.674 25.6267 106.343 25.3387 106.098 24.976C105.853 24.6133 105.73 24.208 105.73 23.76C105.73 23.184 105.874 22.7307 106.162 22.4C106.461 22.0693 106.946 21.8347 107.618 21.696C108.301 21.5573 109.229 21.488 110.402 21.488H111.122V22.336H110.418C109.554 22.336 108.871 22.3787 108.37 22.464C107.879 22.5387 107.533 22.672 107.33 22.864C107.138 23.056 107.042 23.328 107.042 23.68C107.042 24.1173 107.191 24.4747 107.49 24.752C107.799 25.0293 108.215 25.168 108.738 25.168C109.165 25.168 109.538 25.0667 109.858 24.864C110.189 24.6613 110.445 24.384 110.626 24.032C110.818 23.68 110.914 23.2747 110.914 22.816V20.992C110.914 20.3307 110.781 19.856 110.514 19.568C110.247 19.2693 109.81 19.12 109.202 19.12C108.829 19.12 108.455 19.168 108.082 19.264C107.709 19.36 107.314 19.5147 106.898 19.728C106.749 19.8027 106.621 19.8293 106.514 19.808C106.407 19.776 106.322 19.7173 106.258 19.632C106.194 19.5467 106.157 19.4507 106.146 19.344C106.135 19.2267 106.157 19.1147 106.21 19.008C106.274 18.9013 106.37 18.816 106.498 18.752C106.967 18.5173 107.431 18.3467 107.89 18.24C108.349 18.1333 108.786 18.08 109.202 18.08C109.874 18.08 110.429 18.192 110.866 18.416C111.303 18.6293 111.629 18.96 111.842 19.408C112.055 19.8453 112.162 20.4107 112.162 21.104V25.44C112.162 25.6533 112.109 25.8187 112.002 25.936C111.906 26.0533 111.762 26.112 111.57 26.112C111.367 26.112 111.213 26.0533 111.106 25.936C110.999 25.8187 110.946 25.6533 110.946 25.44V24.192H111.09C111.005 24.5973 110.839 24.944 110.594 25.232C110.359 25.52 110.066 25.744 109.714 25.904C109.362 26.064 108.967 26.144 108.53 26.144ZM117.766 26.144C117.158 26.144 116.646 26.0373 116.23 25.824C115.825 25.6 115.521 25.28 115.318 24.864C115.116 24.4373 115.014 23.92 115.014 23.312V19.232H113.942C113.761 19.232 113.622 19.1893 113.526 19.104C113.43 19.008 113.382 18.88 113.382 18.72C113.382 18.56 113.43 18.4373 113.526 18.352C113.622 18.2667 113.761 18.224 113.942 18.224H115.014V16.384C115.014 16.1707 115.073 16.0107 115.19 15.904C115.308 15.7867 115.468 15.728 115.67 15.728C115.873 15.728 116.028 15.7867 116.134 15.904C116.252 16.0107 116.31 16.1707 116.31 16.384V18.224H118.326C118.508 18.224 118.646 18.2667 118.742 18.352C118.838 18.4373 118.886 18.56 118.886 18.72C118.886 18.88 118.838 19.008 118.742 19.104C118.646 19.1893 118.508 19.232 118.326 19.232H116.31V23.184C116.31 23.792 116.438 24.256 116.694 24.576C116.95 24.8853 117.366 25.04 117.942 25.04C118.145 25.04 118.316 25.0187 118.454 24.976C118.604 24.9333 118.726 24.912 118.822 24.912C118.918 24.9013 118.998 24.9333 119.062 25.008C119.126 25.0827 119.158 25.2107 119.158 25.392C119.158 25.52 119.132 25.6373 119.078 25.744C119.036 25.8507 118.956 25.9253 118.838 25.968C118.71 26.0107 118.54 26.048 118.326 26.08C118.124 26.1227 117.937 26.144 117.766 26.144ZM121.054 26.08C120.84 26.08 120.68 26.0213 120.574 25.904C120.467 25.776 120.414 25.6 120.414 25.376V18.832C120.414 18.608 120.467 18.4373 120.574 18.32C120.68 18.2027 120.84 18.144 121.054 18.144C121.256 18.144 121.416 18.2027 121.534 18.32C121.651 18.4373 121.71 18.608 121.71 18.832V25.376C121.71 25.6 121.651 25.776 121.534 25.904C121.427 26.0213 121.267 26.08 121.054 26.08ZM121.054 16.352C120.787 16.352 120.579 16.2827 120.43 16.144C120.28 15.9947 120.206 15.7973 120.206 15.552C120.206 15.296 120.28 15.104 120.43 14.976C120.579 14.8373 120.787 14.768 121.054 14.768C121.331 14.768 121.539 14.8373 121.678 14.976C121.827 15.104 121.902 15.296 121.902 15.552C121.902 15.7973 121.827 15.9947 121.678 16.144C121.539 16.2827 121.331 16.352 121.054 16.352ZM126.837 26.144C126.357 26.144 125.871 26.0853 125.381 25.968C124.901 25.8507 124.453 25.648 124.037 25.36C123.93 25.2853 123.855 25.2 123.813 25.104C123.77 24.9973 123.754 24.896 123.765 24.8C123.786 24.6933 123.829 24.6027 123.893 24.528C123.967 24.4533 124.053 24.4107 124.149 24.4C124.255 24.3787 124.373 24.4 124.501 24.464C124.917 24.72 125.317 24.9013 125.701 25.008C126.095 25.104 126.485 25.152 126.869 25.152C127.477 25.152 127.935 25.04 128.245 24.816C128.554 24.592 128.709 24.288 128.709 23.904C128.709 23.6053 128.607 23.3707 128.405 23.2C128.202 23.0187 127.882 22.88 127.445 22.784L125.989 22.464C125.317 22.3253 124.815 22.0853 124.485 21.744C124.165 21.4027 124.005 20.96 124.005 20.416C124.005 19.936 124.127 19.5253 124.373 19.184C124.629 18.832 124.986 18.56 125.445 18.368C125.903 18.176 126.437 18.08 127.045 18.08C127.514 18.08 127.957 18.144 128.373 18.272C128.799 18.3893 129.183 18.5813 129.525 18.848C129.631 18.9227 129.701 19.0133 129.733 19.12C129.775 19.216 129.781 19.3173 129.749 19.424C129.727 19.52 129.679 19.6053 129.605 19.68C129.53 19.744 129.439 19.7813 129.333 19.792C129.226 19.8027 129.114 19.7707 128.997 19.696C128.677 19.4827 128.351 19.328 128.021 19.232C127.69 19.1253 127.365 19.072 127.045 19.072C126.447 19.072 125.994 19.1893 125.685 19.424C125.375 19.6587 125.221 19.968 125.221 20.352C125.221 20.6507 125.317 20.896 125.509 21.088C125.701 21.28 125.999 21.4187 126.405 21.504L127.861 21.808C128.554 21.9573 129.071 22.1973 129.413 22.528C129.765 22.848 129.941 23.2853 129.941 23.84C129.941 24.544 129.658 25.104 129.093 25.52C128.527 25.936 127.775 26.144 126.837 26.144Z" fill="white"/>
</svg>
