<svg width="74" height="72" viewBox="0 0 74 72" fill="none" xmlns="http://www.w3.org/2000/svg">
<linearGradient id="paint0_linear_154_8489" x1="37" y1="0" x2="37" y2="72" gradientUnits="userSpaceOnUse">
<stop stop-color="#5182CD"/>
<stop offset="1" stop-color="#0B2B5C" stop-opacity="0.59"/>
</linearGradient>
<rect width="74" height="72" rx="15" fill="url(#paint0_linear_154_8489)"/>
<path fill-rule="evenodd" clip-rule="evenodd" d="M10.0386 34.8727C10.8006 20.9559 21.9508 9.80575 35.8676 9.0437V16.6688C26.1548 17.4076 18.4025 25.16 17.6637 34.8727H10.0386ZM10.0386 37.9163C10.8006 51.833 21.9508 62.9832 35.8676 63.7453V56.1202C26.1548 55.3813 18.4025 47.629 17.6637 37.9163H10.0386ZM57.1151 37.9163C56.3762 47.629 48.6239 55.3813 38.9112 56.1202V63.7453C52.8279 62.9832 63.9781 51.8331 64.7401 37.9163H57.1151ZM64.7401 34.8727C63.9781 20.9559 52.8279 9.80575 38.9112 9.0437V16.6688C48.6239 17.4076 56.3762 25.16 57.1151 34.8727H64.7401Z" fill="#C1D539"/>
<path d="M64.7865 15.8481C64.7865 19.6302 61.7205 22.6962 57.9384 22.6962C54.1563 22.6962 51.0903 19.6302 51.0903 15.8481C51.0903 12.066 54.1563 9 57.9384 9C61.7205 9 64.7865 12.066 64.7865 15.8481Z" fill="#D3E148"/>
<path fill-rule="evenodd" clip-rule="evenodd" d="M57.9384 21.1744C60.88 21.1744 63.2647 18.7897 63.2647 15.8481C63.2647 12.9065 60.88 10.5218 57.9384 10.5218C54.9968 10.5218 52.6121 12.9065 52.6121 15.8481C52.6121 18.7897 54.9968 21.1744 57.9384 21.1744ZM57.9384 22.6962C61.7205 22.6962 64.7865 19.6302 64.7865 15.8481C64.7865 12.066 61.7205 9 57.9384 9C54.1563 9 51.0903 12.066 51.0903 15.8481C51.0903 19.6302 54.1563 22.6962 57.9384 22.6962Z" fill="#4E9A06"/>
<path d="M23.6962 15.8481C23.6962 19.6302 20.6302 22.6962 16.8481 22.6962C13.066 22.6962 10 19.6302 10 15.8481C10 12.066 13.066 9 16.8481 9C20.6302 9 23.6962 12.066 23.6962 15.8481Z" fill="#D3E148"/>
<path fill-rule="evenodd" clip-rule="evenodd" d="M16.8481 21.1744C19.7897 21.1744 22.1744 18.7897 22.1744 15.8481C22.1744 12.9065 19.7897 10.5218 16.8481 10.5218C13.9065 10.5218 11.5218 12.9065 11.5218 15.8481C11.5218 18.7897 13.9065 21.1744 16.8481 21.1744ZM16.8481 22.6962C20.6302 22.6962 23.6962 19.6302 23.6962 15.8481C23.6962 12.066 20.6302 9 16.8481 9C13.066 9 10 12.066 10 15.8481C10 19.6302 13.066 22.6962 16.8481 22.6962Z" fill="#4E9A06"/>
<path d="M64.7865 56.9362C64.7865 60.7183 61.7205 63.7842 57.9384 63.7842C54.1563 63.7842 51.0903 60.7183 51.0903 56.9362C51.0903 53.1541 54.1563 50.0881 57.9384 50.0881C61.7205 50.0881 64.7865 53.1541 64.7865 56.9362Z" fill="#D3E148"/>
<path fill-rule="evenodd" clip-rule="evenodd" d="M57.9384 62.2625C60.88 62.2625 63.2647 59.8778 63.2647 56.9362C63.2647 53.9945 60.88 51.6099 57.9384 51.6099C54.9968 51.6099 52.6121 53.9945 52.6121 56.9362C52.6121 59.8778 54.9968 62.2625 57.9384 62.2625ZM57.9384 63.7842C61.7205 63.7842 64.7865 60.7183 64.7865 56.9362C64.7865 53.1541 61.7205 50.0881 57.9384 50.0881C54.1563 50.0881 51.0903 53.1541 51.0903 56.9362C51.0903 60.7183 54.1563 63.7842 57.9384 63.7842Z" fill="#4E9A06"/>
<path d="M23.6962 56.9358C23.6962 60.7179 20.6302 63.7839 16.8481 63.7839C13.066 63.7839 10 60.7179 10 56.9358C10 53.1537 13.066 50.0877 16.8481 50.0877C20.6302 50.0877 23.6962 53.1537 23.6962 56.9358Z" fill="#D3E148"/>
<path fill-rule="evenodd" clip-rule="evenodd" d="M16.8481 62.2621C19.7897 62.2621 22.1744 59.8774 22.1744 56.9358C22.1744 53.9942 19.7897 51.6095 16.8481 51.6095C13.9065 51.6095 11.5218 53.9942 11.5218 56.9358C11.5218 59.8774 13.9065 62.2621 16.8481 62.2621ZM16.8481 63.7839C20.6302 63.7839 23.6962 60.7179 23.6962 56.9358C23.6962 53.1537 20.6302 50.0877 16.8481 50.0877C13.066 50.0877 10 53.1537 10 56.9358C10 60.7179 13.066 63.7839 16.8481 63.7839Z" fill="#4E9A06"/>
<path fill-rule="evenodd" clip-rule="evenodd" d="M35.0666 21.2115V21.171L38.3254 21.1731V21.7675H38.2936V23.7708C38.5019 23.7895 38.7106 23.8117 38.9198 23.8374V23.8088L38.9199 23.8096C38.9999 23.8194 39.0797 23.8286 39.1596 23.8379C39.4176 23.8678 39.6757 23.8977 39.9365 23.9431C41.0421 24.1358 42.168 24.4228 43.3163 24.806L43.3039 24.8092C43.5505 24.8876 43.7211 25.1029 43.7548 25.3544C43.7438 25.3508 43.7327 25.3472 43.7217 25.3436C43.7306 25.3856 43.7354 25.4289 43.7359 25.473C43.7369 25.4916 43.7369 25.5148 43.7359 25.5343V28.3792C43.7334 28.8641 43.2275 29.1834 42.789 28.9756C41.6903 28.4501 40.6642 28.0636 39.7105 27.8115C39.2277 27.6833 38.7558 27.5874 38.2942 27.5244V33.5769C38.5074 33.6209 38.7159 33.6679 38.9198 33.7179V33.69L38.9199 33.6902C40.792 34.1488 42.2931 34.8513 43.3183 35.8956C43.3835 35.9607 43.4433 36.03 43.503 36.0994C43.5234 36.123 43.5437 36.1466 43.5642 36.17C43.4835 36.0998 43.4005 36.0313 43.3152 35.9644C44.4853 37.1536 45.0682 38.774 45.0682 40.6746C45.0682 42.9543 44.2557 44.8208 42.6578 46.0466C41.5302 46.9175 40.0652 47.4471 38.2942 47.6843V50.3098H35.0354V47.7826C34.2248 47.7327 33.3941 47.642 32.5184 47.4668C31.3127 47.2237 30.0672 46.8648 28.7821 46.3928C28.5205 46.2968 28.3491 46.048 28.3496 45.7698V42.7056C28.3496 42.54 28.4077 42.3945 28.5013 42.2824C28.686 42.0223 29.0506 41.9121 29.3646 42.0871C30.5354 42.744 31.674 43.2349 32.7792 43.5629C33.545 43.7897 34.2953 43.9337 35.0354 44.0027V37.2721C32.7797 36.8156 31.0766 36.1068 29.9545 35.0402C28.8201 33.9619 28.2615 32.4351 28.2615 30.6253C28.2615 29.0333 28.708 27.6313 29.5824 26.5065C29.8683 26.1321 30.2011 25.788 30.58 25.4772C31.7558 24.5199 33.258 23.9533 35.0354 23.7428V21.2115L35.0666 21.2115ZM35.0354 32.8205C34.3486 32.6294 33.8298 32.4216 33.4925 32.2245C33.5107 32.2551 33.5293 32.2853 33.5487 32.3148C33.4075 32.2387 33.2932 32.1642 33.2071 32.0928C32.7935 31.7311 32.5718 31.2286 32.5718 30.3937C32.5718 29.4036 32.8951 28.7712 33.6089 28.256C33.9817 27.9914 34.457 27.7848 35.0354 27.6432V32.8205ZM40.1282 42.6364C40.472 42.1828 40.6306 41.6294 40.6306 40.8979C40.6306 39.9541 40.3692 39.3258 39.8456 38.8483H39.8417C39.518 38.5488 38.9888 38.2663 38.2942 38.0223L38.2941 43.7837C38.5167 43.7161 38.7262 43.6401 38.9198 43.5542V43.5221C39.1541 43.4198 39.372 43.3062 39.5552 43.1734C39.7831 43.0086 39.9733 42.8318 40.1282 42.6364Z" fill="white"/>
<defs>
</defs>
</svg>
